<svg fill="#000000" xmlns="http://www.w3.org/2000/svg"  viewBox="0 0 64 64" width="64px" height="64px"><path d="M 13 6 C 9.134 6 6 9.134 6 13 L 6 51 C 6 54.866 9.134 58 13 58 L 51 58 C 54.866 58 58 54.866 58 51 L 58 13 C 58 9.134 54.866 6 51 6 L 13 6 z M 13 8 L 51 8 C 53.761 8 56 10.239 56 13 L 56 51 C 56 53.761 53.761 56 51 56 L 13 56 C 10.239 56 8 53.761 8 51 L 8 13 C 8 10.239 10.239 8 13 8 z M 48 13 C 46.343 13 45 14.343 45 16 C 45 17.657 46.343 19 48 19 C 49.657 19 51 17.657 51 16 C 51 14.343 49.657 13 48 13 z M 48 14.529297 C 48.812 14.529297 49.470703 15.188 49.470703 16 C 49.470703 16.812 48.812 17.470703 48 17.470703 C 47.188 17.470703 46.529297 16.812 46.529297 16 C 46.529297 15.188 47.188 14.529297 48 14.529297 z M 32 18 C 24.27961 18 18 24.27961 18 32 C 18 39.72039 24.27961 46 32 46 C 39.72039 46 46 39.72039 46 32 C 46 24.27961 39.72039 18 32 18 z M 32 20 C 38.63961 20 44 25.36039 44 32 C 44 38.63961 38.63961 44 32 44 C 25.36039 44 20 38.63961 20 32 C 20 25.36039 25.36039 20 32 20 z M 32 22 C 26.488666 22 22 26.488666 22 32 C 22 37.511334 26.488666 42 32 42 C 37.511334 42 42 37.511334 42 32 C 42 26.488666 37.511334 22 32 22 z M 32 24 C 36.430666 24 40 27.569334 40 32 C 40 36.430666 36.430666 40 32 40 C 27.569334 40 24 36.430666 24 32 C 24 27.569334 27.569334 24 32 24 z M 11.931641 48.986328 A 1.0001 1.0001 0 0 0 10.947266 50 L 10.947266 52 A 1.0001 1.0001 0 1 0 12.947266 52 L 12.947266 50 A 1.0001 1.0001 0 0 0 11.931641 48.986328 z M 16.917969 48.986328 A 1.0001 1.0001 0 0 0 15.933594 50 L 15.933594 52 A 1.0001 1.0001 0 1 0 17.933594 52 L 17.933594 50 A 1.0001 1.0001 0 0 0 16.917969 48.986328 z M 21.904297 48.986328 A 1.0001 1.0001 0 0 0 20.919922 50 L 20.919922 52 A 1.0001 1.0001 0 1 0 22.919922 52 L 22.919922 50 A 1.0001 1.0001 0 0 0 21.904297 48.986328 z M 26.892578 48.986328 A 1.0001 1.0001 0 0 0 25.90625 50 L 25.90625 52 A 1.0001 1.0001 0 1 0 27.90625 52 L 27.90625 50 A 1.0001 1.0001 0 0 0 26.892578 48.986328 z M 31.878906 48.986328 A 1.0001 1.0001 0 0 0 30.894531 50 L 30.894531 52 A 1.0001 1.0001 0 1 0 32.894531 52 L 32.894531 50 A 1.0001 1.0001 0 0 0 31.878906 48.986328 z M 36.865234 48.986328 A 1.0001 1.0001 0 0 0 35.880859 50 L 35.880859 52 A 1.0001 1.0001 0 1 0 37.880859 52 L 37.880859 50 A 1.0001 1.0001 0 0 0 36.865234 48.986328 z M 41.851562 48.986328 A 1.0001 1.0001 0 0 0 40.867188 50 L 40.867188 52 A 1.0001 1.0001 0 1 0 42.867188 52 L 42.867188 50 A 1.0001 1.0001 0 0 0 41.851562 48.986328 z M 46.839844 48.986328 A 1.0001 1.0001 0 0 0 45.853516 50 L 45.853516 52 A 1.0001 1.0001 0 1 0 47.853516 52 L 47.853516 50 A 1.0001 1.0001 0 0 0 46.839844 48.986328 z M 51.824219 48.986328 A 1.0001 1.0001 0 0 0 50.839844 50 L 50.839844 52 A 1.0001 1.0001 0 1 0 52.839844 52 L 52.839844 50 A 1.0001 1.0001 0 0 0 51.824219 48.986328 z"/></svg>